<?xml version="1.0" encoding="iso-8859-1"?>
<!-- Generator: Adobe Illustrator 19.0.0, SVG Export Plug-In . SVG Version: 6.00 Build 0)  -->
<svg version="1.1" id="Layer_1" xmlns="http://www.w3.org/2000/svg" xmlns:xlink="http://www.w3.org/1999/xlink" x="0px" y="0px"
	 viewBox="0 0 512 512" style="enable-background:new 0 0 512 512;" xml:space="preserve">
<path style="fill:#D6D6D6;" d="M509.162,251.958l-182.874-66.248L260.053,2.835C259.362,0.949,257.681,0,256,0
	s-3.362,0.949-4.042,2.835l-66.247,182.876L2.838,251.947c-3.784,1.369-3.784,6.726,0,8.095l182.874,66.248l66.236,182.876
	c0.69,1.886,2.371,2.835,4.053,2.835c1.681,0,3.362-0.949,4.042-2.835l66.247-182.876l182.874-66.236
	C512.946,258.684,512.946,253.327,509.162,251.958z M256,299.472c-24.015,0-43.471-19.456-43.471-43.472
	s19.456-43.472,43.471-43.472s43.471,19.456,43.471,43.472S280.015,299.472,256,299.472z"/>
<path style="fill:#B3B3B3;" d="M212.529,256c0,24.016,19.456,43.472,43.471,43.472V512c-1.681,0-3.362-0.949-4.053-2.835
	l-66.236-182.876L2.838,260.042c-3.784-1.369-3.784-6.726,0-8.095l182.874-66.236L251.958,2.835C252.637,0.949,254.319,0,256,0
	v212.528C231.985,212.528,212.529,231.984,212.529,256z"/>
<g>
	<path style="fill:#919191;" d="M256,189.53c-36.71,0-66.469,29.76-66.469,66.47s29.76,66.47,66.469,66.47
		s66.469-29.76,66.469-66.47S292.71,189.53,256,189.53z M256,299.475c-24.011,0-43.474-19.464-43.474-43.475
		S231.99,212.525,256,212.525s43.475,19.464,43.475,43.475C299.475,280.011,280.011,299.475,256,299.475z"/>
	<path style="fill:#919191;" d="M509.162,251.958l-11.156-4.042H322.473c-0.171,0-0.339,0.016-0.507,0.026
		c-3.66-30.263-27.644-54.248-57.907-57.908c0.01-0.168,0.026-0.335,0.026-0.507V13.969l-4.031-11.134
		C259.363,0.949,257.681,0,256,0s-3.364,0.949-4.042,2.835l-4.042,11.156v175.535c0,0.171,0.016,0.339,0.026,0.507
		c-30.279,3.662-54.273,27.669-57.913,57.955c-0.338-0.043-0.68-0.073-1.029-0.073H13.972l-11.134,4.031
		c-3.784,1.369-3.784,6.726,0,8.095l11.156,4.042h175.005c0.349,0,0.692-0.029,1.029-0.073c3.64,30.286,27.634,54.293,57.913,57.955
		c-0.01,0.168-0.026,0.336-0.026,0.507v175.556l4.031,11.134c0.69,1.886,2.371,2.835,4.053,2.835s3.364-0.949,4.042-2.835
		l4.042-11.156V322.473c0-0.171-0.016-0.339-0.026-0.507c30.263-3.66,54.247-27.644,57.907-57.908
		c0.168,0.01,0.335,0.026,0.507,0.026h175.555l11.134-4.031C512.946,258.684,512.946,253.327,509.162,251.958z M256,299.475
		c-24.011,0-43.474-19.464-43.474-43.475S231.99,212.525,256,212.525s43.474,19.464,43.474,43.475
		C299.474,280.011,280.011,299.475,256,299.475z"/>
</g>
<g>
</g>
<g>
</g>
<g>
</g>
<g>
</g>
<g>
</g>
<g>
</g>
<g>
</g>
<g>
</g>
<g>
</g>
<g>
</g>
<g>
</g>
<g>
</g>
<g>
</g>
<g>
</g>
<g>
</g>
</svg>
